<svg width="76" height="76" viewBox="0 0 76 76" fill="none" xmlns="http://www.w3.org/2000/svg">
<path d="M28.5 54.625C25.6816 54.625 22.9265 53.7893 20.5831 52.2234C18.2397 50.6576 16.4133 48.4321 15.3347 45.8282C14.2562 43.2244 13.974 40.3592 14.5238 37.595C15.0736 34.8307 16.4308 32.2916 18.4237 30.2987C20.4166 28.3058 22.9557 26.9487 25.72 26.3988C28.4842 25.849 31.3494 26.1312 33.9532 27.2097C36.5571 28.2883 38.7826 30.1147 40.3484 32.4581C41.9142 34.8015 42.75 37.5566 42.75 40.375C42.75 44.1543 41.2487 47.7789 38.5763 50.4513C35.9039 53.1237 32.2793 54.625 28.5 54.625ZM28.5 30.875C26.6211 30.875 24.7844 31.4322 23.2221 32.476C21.6598 33.5199 20.4422 35.0036 19.7231 36.7395C19.0041 38.4754 18.816 40.3855 19.1825 42.2284C19.5491 44.0712 20.4539 45.7639 21.7825 47.0925C23.1111 48.4211 24.8038 49.3259 26.6466 49.6925C28.4895 50.059 30.3996 49.8709 32.1355 49.1519C33.8714 48.4328 35.3551 47.2152 36.399 45.6529C37.4428 44.0907 38 42.2539 38 40.375C38 37.8554 36.9991 35.4391 35.2175 33.6575C33.4359 31.8759 31.0196 30.875 28.5 30.875Z" fill="white"/>
<path d="M68.875 64.125H7.125C6.49511 64.125 5.89102 63.8748 5.44562 63.4294C5.00022 62.984 4.75 62.3799 4.75 61.75V14.25C4.75 13.6201 5.00022 13.016 5.44562 12.5706C5.89102 12.1252 6.49511 11.875 7.125 11.875H68.875C69.5049 11.875 70.109 12.1252 70.5544 12.5706C70.9998 13.016 71.25 13.6201 71.25 14.25V61.75C71.25 62.3799 70.9998 62.984 70.5544 63.4294C70.109 63.8748 69.5049 64.125 68.875 64.125ZM9.5 59.375H66.5V16.625H9.5V59.375Z" fill="white"/>
<path d="M45.125 21.375H61.75V26.125H45.125V21.375Z" fill="white"/>
<path d="M28.5 42.75C29.8117 42.75 30.875 41.6867 30.875 40.375C30.875 39.0633 29.8117 38 28.5 38C27.1883 38 26.125 39.0633 26.125 40.375C26.125 41.6867 27.1883 42.75 28.5 42.75Z" fill="white"/>
</svg>
