<svg width="56" height="56" viewBox="0 0 56 56" fill="none" xmlns="http://www.w3.org/2000/svg">
<path d="M50.7501 48.2755L37.5341 35.0595C40.71 31.2468 42.2937 26.3565 41.9557 21.4058C41.6178 16.4552 39.3843 11.8254 35.7198 8.47965C32.0552 5.13387 27.2419 3.32968 22.281 3.4424C17.3201 3.55512 12.5937 5.57607 9.08493 9.08485C5.57615 12.5936 3.5552 17.3201 3.44248 22.2809C3.32976 27.2418 5.13395 32.0552 8.47973 35.7197C11.8255 39.3842 16.4553 41.6177 21.4059 41.9557C26.3565 42.2936 31.2469 40.7099 35.0596 37.534L48.2756 50.75L50.7501 48.2755ZM7.00008 22.75C7.00008 19.6349 7.9238 16.5898 9.65443 13.9998C11.3851 11.4097 13.8449 9.39098 16.7228 8.1989C19.6008 7.00682 22.7676 6.69492 25.8228 7.30263C28.878 7.91035 31.6843 9.41039 33.887 11.6131C36.0897 13.8157 37.5897 16.6221 38.1975 19.6773C38.8052 22.7325 38.4933 25.8993 37.3012 28.7773C36.1091 31.6552 34.0904 34.115 31.5003 35.8456C28.9102 37.5763 25.8651 38.5 22.7501 38.5C18.5743 38.4954 14.571 36.8345 11.6183 33.8818C8.66557 30.9291 7.00471 26.9257 7.00008 22.75Z" fill="white"/>
</svg>
